<svg xmlns="http://www.w3.org/2000/svg" width="900" height="430" viewBox="0 0 900 430" role="img" aria-label="MTA plan forecast 500 million in 2025, 2026, 2027 and 700 million in 2028 and 2029.">
<rect width="900" height="430" fill="white"/><text x="55" y="42" font-family="Arial" font-size="24" font-weight="bold" fill="#172033">MTA Central Business District Tolling Program plan</text><text x="55" y="70" font-family="Arial" font-size="15" fill="#526071">Annual forecast in the MTA July Financial Plan; USD millions</text>
<line x1="100" y1="350" x2="850" y2="350" stroke="#334155" stroke-width="2"/><line x1="100" y1="90" x2="100" y2="350" stroke="#334155" stroke-width="2"/><g stroke="#d8dee8" stroke-width="1"><line x1="100" y1="276" x2="850" y2="276"/><line x1="100" y1="202" x2="850" y2="202"/><line x1="100" y1="128" x2="850" y2="128"/></g><g font-family="Arial" font-size="13" fill="#526071"><text x="60" y="355">0</text><text x="44" y="281">200</text><text x="44" y="207">400</text><text x="44" y="133">600</text></g>
<g fill="#4f46e5"><rect x="160" y="165" width="80" height="185"/><rect x="290" y="165" width="80" height="185"/><rect x="420" y="165" width="80" height="185"/><rect x="550" y="91" width="80" height="259"/><rect x="680" y="91" width="80" height="259"/></g><g font-family="Arial" text-anchor="middle"><text x="200" y="155" font-size="17" fill="#312e81">$500M</text><text x="330" y="155" font-size="17" fill="#312e81">$500M</text><text x="460" y="155" font-size="17" fill="#312e81">$500M</text><text x="590" y="81" font-size="17" fill="#312e81">$700M</text><text x="720" y="81" font-size="17" fill="#312e81">$700M</text><text x="200" y="378" font-size="16" fill="#172033">2025</text><text x="330" y="378" font-size="16" fill="#172033">2026</text><text x="460" y="378" font-size="16" fill="#172033">2027</text><text x="590" y="378" font-size="16" fill="#172033">2028</text><text x="720" y="378" font-size="16" fill="#172033">2029</text></g>
</svg>
